<svg xmlns="http://www.w3.org/2000/svg" width="720" height="430">
<rect width="100%" height="100%" fill="white"/>
<text x="30" y="34" font-family="sans-serif" font-size="20">Mean scored BPMN quality by difficulty and representation</text>
<line x1="70" y1="350.0" x2="700" y2="350.0" stroke="#e5e7eb"/>
<text x="35" y="354.0" font-family="sans-serif" font-size="11">0.0</text>
<line x1="70" y1="294.0" x2="700" y2="294.0" stroke="#e5e7eb"/>
<text x="35" y="298.0" font-family="sans-serif" font-size="11">0.2</text>
<line x1="70" y1="238.0" x2="700" y2="238.0" stroke="#e5e7eb"/>
<text x="35" y="242.0" font-family="sans-serif" font-size="11">0.4</text>
<line x1="70" y1="182.0" x2="700" y2="182.0" stroke="#e5e7eb"/>
<text x="35" y="186.0" font-family="sans-serif" font-size="11">0.6</text>
<line x1="70" y1="126.0" x2="700" y2="126.0" stroke="#e5e7eb"/>
<text x="35" y="130.0" font-family="sans-serif" font-size="11">0.8</text>
<line x1="70" y1="70.0" x2="700" y2="70.0" stroke="#e5e7eb"/>
<text x="35" y="74.0" font-family="sans-serif" font-size="11">1.0</text>
<rect x="73" y="73.6" width="28" height="276.4" fill="#2563eb"/>
<rect x="109" y="70.0" width="28" height="280.0" fill="#f97316"/>
<text x="105" y="374" font-family="sans-serif" font-size="10" text-anchor="middle">easy</text>
<rect x="183" y="140.7" width="28" height="209.3" fill="#2563eb"/>
<rect x="219" y="112.9" width="28" height="237.1" fill="#f97316"/>
<text x="215" y="374" font-family="sans-serif" font-size="10" text-anchor="middle">hard</text>
<rect x="293" y="112.8" width="28" height="237.2" fill="#2563eb"/>
<rect x="329" y="96.3" width="28" height="253.7" fill="#f97316"/>
<text x="325" y="374" font-family="sans-serif" font-size="10" text-anchor="middle">medium</text>
<rect x="403" y="254.2" width="28" height="95.8" fill="#2563eb"/>
<rect x="439" y="122.6" width="28" height="227.4" fill="#f97316"/>
<text x="435" y="374" font-family="sans-serif" font-size="10" text-anchor="middle">stress</text>
<rect x="485" y="18" width="12" height="12" fill="#2563eb"/>
<text x="503" y="29" font-family="sans-serif" font-size="12">DSL</text>
<rect x="555" y="18" width="12" height="12" fill="#f97316"/>
<text x="573" y="29" font-family="sans-serif" font-size="12">zero_shot_xml</text>
</svg>